<?xml version="1.0" encoding="utf-8"?>
<!-- Generator: Adobe Illustrator 23.0.0, SVG Export Plug-In . SVG Version: 6.00 Build 0)  -->
<svg version="1.1" id="Layer_1" xmlns="http://www.w3.org/2000/svg" xmlns:xlink="http://www.w3.org/1999/xlink" x="0px" y="0px"
	 viewBox="0 0 235.4 419" style="enable-background:new 0 0 235.4 419;" xml:space="preserve">
<style type="text/css">
	.st0{clip-path:url(#SVGID_2_);}
	.st1{clip-path:url(#SVGID_4_);}
	.st2{clip-path:url(#SVGID_6_);fill:none;stroke:#231F20;stroke-width:0.512;stroke-miterlimit:10;}
	.st3{clip-path:url(#SVGID_8_);fill:none;stroke:#231F20;stroke-width:0.512;stroke-miterlimit:10;}
	.st4{clip-path:url(#SVGID_10_);fill:none;stroke:#231F20;stroke-width:0.512;stroke-miterlimit:10;}
	.st5{clip-path:url(#SVGID_12_);fill:none;stroke:#231F20;stroke-width:0.512;stroke-miterlimit:10;}
	.st6{clip-path:url(#SVGID_14_);fill:none;stroke:#231F20;stroke-width:0.512;stroke-miterlimit:10;}
	.st7{clip-path:url(#SVGID_16_);fill:none;stroke:#231F20;stroke-width:0.512;stroke-miterlimit:10;}
	.st8{clip-path:url(#SVGID_18_);}
	.st9{clip-path:url(#SVGID_20_);}
	.st10{clip-path:url(#SVGID_22_);fill:none;stroke:#231F20;stroke-width:0.512;stroke-miterlimit:10;}
	.st11{clip-path:url(#SVGID_24_);fill:none;stroke:#231F20;stroke-width:0.512;stroke-miterlimit:10;}
	.st12{clip-path:url(#SVGID_26_);fill:none;stroke:#231F20;stroke-width:0.512;stroke-miterlimit:10;}
	.st13{clip-path:url(#SVGID_28_);fill:none;stroke:#231F20;stroke-width:0.512;stroke-miterlimit:10;}
	.st14{clip-path:url(#SVGID_30_);fill:none;stroke:#231F20;stroke-width:0.512;stroke-miterlimit:10;}
	.st15{clip-path:url(#SVGID_32_);}
	.st16{clip-path:url(#SVGID_34_);}
	.st17{clip-path:url(#SVGID_36_);}
	.st18{clip-path:url(#SVGID_38_);fill:none;stroke:#000000;stroke-width:0.3657;}
	.st19{clip-path:url(#SVGID_40_);}
	.st20{clip-path:url(#SVGID_42_);fill:none;stroke:#000000;stroke-width:0.3657;}
	.st21{clip-path:url(#SVGID_44_);}
	.st22{clip-path:url(#SVGID_46_);}
	.st23{clip-path:url(#SVGID_48_);}
	.st24{clip-path:url(#SVGID_50_);fill:none;stroke:#000000;stroke-width:0.3657;}
	.st25{clip-path:url(#SVGID_52_);}
	.st26{clip-path:url(#SVGID_54_);fill:none;stroke:#000000;stroke-width:0.3657;}
</style>
<g id="Vector_Smart_Object_1_">
	<g>
		<g>
			<defs>
				<rect id="SVGID_1_" x="30" y="93.4" width="205.4" height="426"/>
			</defs>
			<clipPath id="SVGID_2_">
				<use xlink:href="#SVGID_1_"  style="overflow:visible;"/>
			</clipPath>
			<g class="st0">
				<g>
					<defs>
						<rect id="SVGID_3_" x="30" y="93.4" width="205.4" height="426"/>
					</defs>
					<clipPath id="SVGID_4_">
						<use xlink:href="#SVGID_3_"  style="overflow:visible;"/>
					</clipPath>
					<g class="st1">
						
							<text transform="matrix(1 0 0 1 31.1973 464.0302)" style="fill:#231F20; font-family:'VTF_VictoriannaThin_italic'; font-size:35.1059px;">Lucid M</text>
					</g>
				</g>
				<g>
					<defs>
						<rect id="SVGID_5_" x="30" y="93.4" width="205.4" height="426"/>
					</defs>
					<clipPath id="SVGID_6_">
						<use xlink:href="#SVGID_5_"  style="overflow:visible;"/>
					</clipPath>
					<polygon class="st2" points="33.8,463.4 41.8,437 44.4,437 44.4,436.4 38.8,436.4 38.8,437 41.1,437 33.1,463.4 30.5,463.4 
						30.5,464 47.5,464 46.1,465.3 46.5,465.8 52.1,460.5 51.6,460.1 48.1,463.4 					"/>
				</g>
				<g>
					<defs>
						<rect id="SVGID_7_" x="30" y="93.4" width="205.4" height="426"/>
					</defs>
					<clipPath id="SVGID_8_">
						<use xlink:href="#SVGID_7_"  style="overflow:visible;"/>
					</clipPath>
					<path class="st3" d="M68.5,463.7c-0.5,0-0.9-0.3-0.9-0.7c0-0.1,0-0.4,0.2-1.1l4.7-15.1l-0.6-0.1l-1,3.2
						c-0.1,0.3-0.3,0.7-0.6,1.2c-1.1,2-2.3,3.9-3.5,5.7c-3.1,4.4-5.8,6.9-7.9,6.9c-0.9,0-1.2-0.6-1.2-1.5c0-1.1,0.4-2,0.7-2.9
						l3.2-10.4c0.1-0.4,0.2-0.7,0.2-1c0-0.9-0.5-1.2-1.4-1.2c-2.1,0-4.7,3.1-5.6,5.1l0.6,0.3c0.8-1.6,3.2-4.7,5.1-4.7
						c0.4,0,0.8,0.1,0.8,0.7c0,0.2,0,0.4-0.1,0.6L57.6,459c-0.3,1.1-0.7,2-0.7,3.1c0,1.2,0.7,2.1,1.9,2.1c2.3,0,5.1-2.5,8.4-7.2
						c1-1.4,1.9-2.8,2.7-4.3l-2.8,9c-0.2,0.5-0.2,0.8-0.2,1.1c0,0.9,0.7,1.4,1.6,1.4c1.5,0,4-1.9,5-2.9L73,461
						C72,462,70,463.7,68.5,463.7z"/>
				</g>
				<g>
					<defs>
						<rect id="SVGID_9_" x="30" y="93.4" width="205.4" height="426"/>
					</defs>
					<clipPath id="SVGID_10_">
						<use xlink:href="#SVGID_9_"  style="overflow:visible;"/>
					</clipPath>
					<path class="st4" d="M86.3,446.6c-5.9,0-10,7.3-10,12.5c0,2.7,1,5.2,4,5.2c2.7,0,4.8-1.6,6.6-3.3l-0.4-0.5
						c-1.9,1.8-3.8,3.2-6.2,3.2c-2.6,0-3.4-2.3-3.4-4.5c0-5.1,4-11.9,9.4-11.9c1.5,0,2.4,0.5,3,1.4l-2.3,2.6l0.5,0.4l2.6-2.9
						C89.3,447.2,88.1,446.6,86.3,446.6z"/>
				</g>
				<g>
					<defs>
						<rect id="SVGID_11_" x="30" y="93.4" width="205.4" height="426"/>
					</defs>
					<clipPath id="SVGID_12_">
						<use xlink:href="#SVGID_11_"  style="overflow:visible;"/>
					</clipPath>
					<path class="st5" d="M97.3,461c-1.2,1-3.2,2.7-4.6,2.7c-0.6,0-0.7-0.4-0.7-0.8c0-0.3,0.1-0.6,0.2-0.9l4.3-13.8
						c0.3-0.8-0.3-1.5-1.1-1.5c-0.7,0-1.7,0.5-2.8,1.4l0.4,0.5c0.7-0.5,1.6-1.3,2.4-1.3c0.5,0,0.6,0.3,0.5,0.7l-4.3,13.8
						c-0.1,0.4-0.2,0.8-0.2,1.2c0,0.9,0.7,1.3,1.4,1.3c1.6,0,3.9-1.9,5-2.9L97.3,461z M98.1,441.4c0.5,0,0.8,0.3,0.8,0.7
						c0,0.9-0.9,1.7-1.7,1.7c-0.5,0-0.8-0.3-0.8-0.8C96.4,442.2,97.3,441.4,98.1,441.4z M97.2,444.4c1.2,0,2.4-1.1,2.4-2.3
						c0-0.8-0.7-1.4-1.4-1.4c-1.3,0-2.4,1.1-2.4,2.3C95.7,443.9,96.5,444.4,97.2,444.4z"/>
				</g>
				<g>
					<defs>
						<rect id="SVGID_13_" x="30" y="93.4" width="205.4" height="426"/>
					</defs>
					<clipPath id="SVGID_14_">
						<use xlink:href="#SVGID_13_"  style="overflow:visible;"/>
					</clipPath>
					<path class="st6" d="M115.8,438.5l0.2,0.6l3-1l-4.6,14.9c-0.9,3-4.8,10.7-9.5,10.7c-2.6,0-4-2.1-4-4.5c0-4.8,4.8-11.9,9.4-11.9
						c1.5,0,2.5,0.5,3.3,1.7l0.5-0.3c-0.9-1.4-2.2-1.9-3.8-1.9c-5,0-10,7.6-10,12.5c0,2.9,1.8,5.1,4.6,5.1c3.4,0,6.1-3.5,7.7-6
						l0.5-0.9c-0.4,1.6-1.8,6.9,0.8,6.9c1.5,0,2.7-1,3.9-3.1l-0.6-0.3c-0.7,1.2-1.8,2.7-3.3,2.7c-1.5,0-0.9-3.5-0.1-6.4
						c0.3-1.2,0.8-2.5,1.3-4.1l4.9-16.1L115.8,438.5z"/>
				</g>
				<g>
					<defs>
						<rect id="SVGID_15_" x="30" y="93.4" width="205.4" height="426"/>
					</defs>
					<clipPath id="SVGID_16_">
						<use xlink:href="#SVGID_15_"  style="overflow:visible;"/>
					</clipPath>
					<path class="st7" d="M141.8,455.8c-0.5,0-0.7-0.2-0.7-0.6c0-0.7,0.7-2.1,2.1-4c0.1,0.5,0.2,1.3,0.2,2.1
						C143.4,454.6,143.1,455.8,141.8,455.8z M156,435.7c-4.2,4.3-9.3,9.8-12.5,13.9c-1.1-4.6-2.8-8.9-4.7-13.1
						c-0.5-1.1-1.2-1.8-2.3-2c-0.7-0.1-1.4-0.1-1.6,0l0.1,0.6c0.2,0,0.7-0.1,1.4,0c0.9,0.2,1.5,0.7,1.8,1.5l-4.9,13.4
						c-3.9,10.6-4.8,12.8-7.9,13.6v0.6c3.4-0.7,4.4-2.7,8.5-14l4.7-12.8c1.8,4.2,3.5,8.4,4.4,12.8c-1.8,2.6-2.6,4.1-2.6,5
						c0,0.8,0.7,1.1,1.4,1.1c1.8,0,2.2-1.5,2.2-3.2c0-1.1-0.2-2.1-0.3-2.8c3.5-4.6,7.4-8.8,11.4-12.9l-4.1,25.8H149v0.6h4.3v-0.6
						h-1.8L156,435.7z"/>
				</g>
			</g>
		</g>
		<g>
			<defs>
				<rect id="SVGID_17_" x="30" y="93.4" width="205.4" height="426"/>
			</defs>
			<clipPath id="SVGID_18_">
				<use xlink:href="#SVGID_17_"  style="overflow:visible;"/>
			</clipPath>
			<g class="st8">
				
					<text transform="matrix(1 0 0 1 156.1777 464.0302)" style="fill:#231F20; font-family:'VTF_VictoriannaThin_italic'; font-size:35.1059px;">ortal</text>
			</g>
		</g>
		<g>
			<defs>
				<rect id="SVGID_19_" x="30" y="93.4" width="205.4" height="426"/>
			</defs>
			<clipPath id="SVGID_20_">
				<use xlink:href="#SVGID_19_"  style="overflow:visible;"/>
			</clipPath>
			<g class="st9">
				<g>
					<defs>
						<rect id="SVGID_21_" x="30" y="93.4" width="205.4" height="426"/>
					</defs>
					<clipPath id="SVGID_22_">
						<use xlink:href="#SVGID_21_"  style="overflow:visible;"/>
					</clipPath>
					<path class="st10" d="M162.4,463.7c-3,0-4.5-2.6-4.5-5.4c0-5.2,4.2-11,9.1-11c3.1,0,4.5,2.7,4.5,5.8
						C171.4,458.2,167,463.7,162.4,463.7z M166.9,446.6c-5.3,0-9.7,6.1-9.7,11.5c0,3.5,1.9,6.1,5.1,6.1c5.4,0,9.7-6.1,9.7-11.2
						C172,449.4,170.1,446.6,166.9,446.6z"/>
				</g>
				<g>
					<defs>
						<rect id="SVGID_23_" x="30" y="93.4" width="205.4" height="426"/>
					</defs>
					<clipPath id="SVGID_24_">
						<use xlink:href="#SVGID_23_"  style="overflow:visible;"/>
					</clipPath>
					<path class="st11" d="M185.3,446.6c-2.2,0-5.1,3.5-7.9,9.3c0.4-1.2,1.1-3.6,2.2-7c0.4-1.1,0.2-2.4-1.2-2.4
						c-1.8,0-3.1,1.4-3.7,3l0.6,0.2c0.5-1.2,1.5-2.5,2.9-2.5c1.1,0,1.1,0.7,0.8,1.5l-4.9,15.2l0.6,0.2c1-3,2.2-5.7,3.5-8.3
						c2.8-5.6,5.2-8.6,7.1-8.6c2,0,2.6,1.7,2.1,3.3l0.6,0.2C188.5,448.5,187.7,446.6,185.3,446.6z"/>
				</g>
				<g>
					<defs>
						<rect id="SVGID_25_" x="30" y="93.4" width="205.4" height="426"/>
					</defs>
					<clipPath id="SVGID_26_">
						<use xlink:href="#SVGID_25_"  style="overflow:visible;"/>
					</clipPath>
					<path class="st12" d="M201.4,446.9h-7.8c1.8-0.8,3-3,3.3-4.7l-0.6-0.1c-0.4,2.6-2.6,4.8-5.2,4.8l-1,0v0.6h4.6l-4.5,14.6
						c-0.5,1.7,0.6,2.1,1.6,2.1c2.5,0,4.3-2.8,5.5-4.5l-0.5-0.3c-1.1,1.7-2.9,4.2-4.9,4.2c-0.6,0-1.4-0.2-1-1.4l4.5-14.7h6
						L201.4,446.9L201.4,446.9z"/>
				</g>
				<g>
					<defs>
						<rect id="SVGID_27_" x="30" y="93.4" width="205.4" height="426"/>
					</defs>
					<clipPath id="SVGID_28_">
						<use xlink:href="#SVGID_27_"  style="overflow:visible;"/>
					</clipPath>
					<path class="st13" d="M213.2,463.7c-0.6,0-0.6-0.9-0.6-1.5c0-2.1,0.6-5.8,1.7-10.1l-0.6-0.2c-2.4,4.6-5.9,11.8-9.5,11.8
						c-2.2,0-2.3-1.7-2.3-3.5c0-4.8,3.4-12.9,9.2-12.9c1.8,0,2.7,1.1,2.9,1.4l0.6-0.3c-0.8-1.1-2-1.7-3.5-1.7
						c-6.3,0-9.9,8.5-9.9,13.5c0,2.3,0.4,4.1,2.9,4.1c2.6,0,5.6-3.4,8.9-9.8c-0.6,2.8-1.1,5.3-1.1,7.6c0,1,0,2.3,1.2,2.3
						c1.2,0,2.4-1.3,3.6-2.9l-0.5-0.4C215.1,462.5,214.1,463.6,213.2,463.7z"/>
				</g>
				<g>
					<defs>
						<rect id="SVGID_29_" x="30" y="93.4" width="205.4" height="426"/>
					</defs>
					<clipPath id="SVGID_30_">
						<use xlink:href="#SVGID_29_"  style="overflow:visible;"/>
					</clipPath>
					<path class="st14" d="M222.6,438.2l0.1,0.6l3.1-0.8l-7.1,23.2c-0.5,1.5-0.2,3,1.2,3c1.6,0,3.8-1.9,5-2.9l-0.4-0.5
						c-0.9,0.8-3.2,2.7-4.6,2.7c-0.9,0-1-1-0.6-2.3l7.4-24.2L222.6,438.2z"/>
				</g>
				<g>
					<defs>
						<rect id="SVGID_31_" x="30" y="93.4" width="205.4" height="426"/>
					</defs>
					<clipPath id="SVGID_32_">
						<use xlink:href="#SVGID_31_"  style="overflow:visible;"/>
					</clipPath>
					<path class="st15" d="M221.2,344.9c-0.6-6.6-2.8-9.9-5.6-9.4c-2.6,0.5-4.5,4.8-4.2,9.8l1-0.2c-0.2-4.1,1.3-7.2,3.3-7.6
						c2.2-0.4,4,2.3,4.4,7.6c0.9,10.1-3.9,13.7-8.5,14.6c-6.3,1.2-10.2-1.1-13.3-0.5c-5.6,1.1-9.1,7.1-8.6,16.1
						c0.4,7,3.1,9.4,5.6,8.9c2.7-0.5,4.8-4.9,4.5-9.8l-1.1,0.2c0.2,4-1.5,7.3-3.5,7.7c-2.2,0.4-4.2-1.6-4.5-7.2
						c-0.5-9.1,3.1-13.3,8.2-14.3c5.9-1.1,8.5,9.8,9.2,19.1c1.3,17.7-9.9,25.5-22.2,27.8c-9.6,1.7-20.9-2.5-21.4-21.4
						c-0.2-7.6,0.9-18.3,4.8-22.1c2.2,4.5,5.4,7.4,8.6,6.8c2-0.4,3.9-3,3.7-6.8c-0.2-5.5-5.6-5.1-7.4-4.8c-1.4,0.3-3.6,1.4-4.5,2.4
						c-0.9-2.3-1.4-4.9-1.4-7.7c-0.3-11.7,4.7-21.1,10.7-22.3c2.2-0.4,6.3-0.3,6.5,4.9c0.1,2.5-0.7,5.8-2.5,9.5l0.8,1.2
						c2-4.2,2.9-7.8,2.7-10.7c-0.2-3.8-1.7-5.6-3.5-6.4c5.4-3,10.3-10.7,9.7-22.2c-0.2-4.6-2.3-6-4.3-5.6l0.1,1.9
						c1.5-0.2,3.1,0.5,3.2,3.9c0.5,11.7-5.2,19.9-12.1,21.3c-6.1,1.2-13.1-2.5-13.4-16c-0.1-10.8,2.4-23.1,7.2-29
						c1.9,3.1,4.2,5,6.2,4.5c1.8-0.4,3.5-3.2,3.4-6.7c-0.1-4-3.2-4-4.4-3.8c-1.6,0.4-3.4,1.5-5.1,3.5c-1.5-3-2.3-6.7-2.3-10.8l0-0.4
						c-0.1-11.9,4.6-22,9.6-23.1c3.5-0.8,7.9,3.2,8.2,10.9c0.1,2.8-0.4,5.6-1.6,8.7l0.7,1.2c1.3-3.2,1.9-6.8,1.8-10.1
						c-0.2-6.5-2.7-10.3-5.4-11.9c0.9,0.1,1.8,0,2.6-0.1c5.2-1.1,11.1-8.8,10.6-21.2c-0.1-2.2-0.6-3.6-1.3-4.4
						c1.3-1.7,2.5-2.7,3.7-3c2.8-0.6,5.7,2.3,5.1,10c-0.5,5.6-2.5,9.6-7,16l-6,8.4l0.1,0.7l0.1,0.7l3.6-4.9
						c5.9-8.4,10.5-4.6,9.2,9.6c-1.4,15.3-9.4,28.3-15.2,29.6c-3.6,0.7-5.5-3.5-4.8-8.4l-0.8,0.2c-0.6,6.6,2.1,10.6,5.4,9.9
						c7-1.5,14.8-16.2,16.2-31.5c1-11.2-1.5-17.8-6.7-14.4c4.4-6,6.1-10.9,6.6-16.1c0.7-7.8-2.5-12.1-5.6-11.3
						c-1.4,0.3-2.9,1.6-4.2,3.5c2.7-5.6,4.8-12.8,5.5-20.2c1-10.8-1.2-17.1-5.8-13.9c4-5.8,5.5-10.5,6-15.5c0.3-3.7-0.2-6.6-1.1-8.5
						c1.1-3.2,1.7-7.1,1.5-11.8c-0.1-2.8-0.8-4.2-1.7-4.8c0.3-1.7,0.5-3.3,0.6-5c1-10.8-1-17.1-5.2-13.9c3.7-5.8,5.1-10.5,5.6-15.5
						c0.4-4.4-0.3-7.7-1.5-9.4c-1-6-4.1-8.4-6.2-7.8c-4.2,1.2-7.8,12.1-7.7,23c0,4.1,0.6,7.9,1.7,10.9c-3.7,6-5.7,17.1-5.6,27.6
						c0,3.4,0.4,6.1,1,8.3c0.1,3.8,1.2,6.3,2.9,7c-3.6,3.5-6.3,12.5-6.2,21.6c0,4.1,0.7,7.9,1.9,10.9c-4.1,6-6.3,17.1-6.2,27.6
						c0.1,9.1,2.9,13.7,6.3,15.5c-0.3,0-0.7,0-1,0.1c-5.8,1.3-10.6,13.3-10.5,25.4c0.1,4.5,0.9,8.7,2.4,12c-5,6.6-7.7,18.9-7.6,30.4
						c0.2,12,5.1,16.9,10.2,17.9c-4.9,3.6-8.6,12.7-8.3,23c0.1,3,0.6,5.8,1.5,8.3c-4.2,4.2-5.5,15.5-5.3,23.9
						c0.6,20.9,13.1,24.7,22.6,23c12.8-2.3,24.6-11,23.1-29.9c-0.5-6.5-1.8-14.5-5-18.2c3.2,0.3,5.8,0.3,7.8-0.1
						C217.7,360.4,222.1,355.3,221.2,344.9 M174.3,361.4c2.3-0.4,6.2-0.2,6.4,3.1c0.1,2.8-1.4,4.5-2.8,4.8c-3,0.6-5.6-2.4-7.4-5.9
						C171.6,362.3,172.8,361.7,174.3,361.4 M179.2,280.6c0.7-0.1,3.2-0.2,3.3,2.1c0.1,2.6-1.3,4.3-2.6,4.5c-1.9,0.4-3.9-1.5-5.2-3.6
						C176.2,281.8,177.8,280.9,179.2,280.6 M201.4,170.5c-0.5,5.1-2.1,8.8-5.7,14.4c0.2-1.5,0.3-3,0.3-4.5c-0.1-4.4-1.3-7.4-2.7-9.3
						c2.6-0.8,5.4-3.6,7.2-8.2C201.4,164.5,201.8,166.9,201.4,170.5 M192.9,169.4c-0.4,0.1-0.8,0.1-1.2,0.2
						c-0.3-0.2-0.6-0.4-0.8-0.5c0.1-0.4,0.3-0.7,0.5-1.1c1.5-1.6,3-3.8,4.3-6.5c0.5-0.4,0.9-0.6,1.4-0.7c1-0.3,2.1,0.1,2.9,1.1
						C198.3,166.1,195.8,168.7,192.9,169.4 M201.8,150.1c0.1,4.1-0.4,7.7-1.4,10.7c-0.9-1.2-2.1-1.8-3.2-1.5
						c-0.2,0.1-0.4,0.2-0.6,0.2c1.6-3.7,3-8.1,3.9-12.8C201.2,147.1,201.7,148,201.8,150.1 M187.1,116.6v-0.4c-0.1-10.8,3.4-20,7-21
						c1.8-0.5,4,1.2,5.1,4.8c-0.6-0.4-1.2-0.5-1.8-0.3c-2.4,0.7-4.9,5.2-6.8,10.7l0.4,0.8c2.1-5.9,4.3-9.4,6.3-9.9
						c0.9-0.2,1.8,0,2.5,0.9c0.1,0.9,0.2,1.8,0.3,2.9c0.1,2.5-0.3,5.1-1.2,7.9l0.5,1.1c1-3,1.4-6.1,1.3-9.1c0-0.4,0-0.7-0.1-1.1
						c0.6,1.6,0.9,3.9,0.6,7.1c-0.5,5.2-2.1,9.1-5.6,15c-0.3-2.9-2.3-3-3.1-2.8c-1.2,0.3-2.4,1.3-3.7,3.2
						C187.6,123.7,187.1,120.3,187.1,116.6 M192.5,131c-1.2-0.1-2.4-1.6-3.2-3.3c1.1-1.6,2.3-2.5,3.3-2.7c0.5-0.1,2.3-0.1,2.4,1.9
						c0,0.1,0,0.1,0,0.2L192.5,131z M184,162.2c0-0.5,0.1-1,0.1-1.5l-0.4,0.1c-0.3-1.7-0.5-3.6-0.5-5.9c-0.1-9.8,1.9-21,5.4-26.3
						c0.9,1.9,1.9,3.3,3,3.9l-1.3,2.1l0.1,0.6l0.1,0.6l1.9-3.1c0.2,0,0.5,0,0.7,0c1.1-0.3,2.1-2.1,2.4-4.5c3.8-4.1,6.4,0.3,5.3,12
						c-0.1,1.6-0.4,3.1-0.6,4.6c-0.3-0.1-0.6-0.1-0.9,0l0.1,1.7c0.2,0,0.3,0,0.5,0c-1,5.3-2.7,10-4.5,13.8c-1.5,1.3-2.9,3.5-4.2,6.3
						c-1.1,1.1-2.1,1.8-3,2.1C186.4,167.6,184.9,165.6,184,162.2 M176.6,230.3c-0.1-9.8,2-21,5.9-26.3c1.5,2.8,3.4,4.5,5.1,4.1
						c1.5-0.4,2.9-2.9,2.8-6.1c-0.1-3.6-2.6-3.6-3.6-3.4c-1.3,0.3-2.7,1.4-4.2,3.2c-1.2-2.7-1.8-6.1-1.9-9.8v-0.4
						c-0.1-10.6,3.6-19.6,7.6-20.9c1,0.5,2.1,0.7,3.2,0.7c1.9,1.4,3.5,4.5,3.7,9.2c0.1,2-0.2,4.1-0.8,6.3l-4.8,7.1l0.1,0.6l0.1,0.6
						l3.2-4.8c0.4-0.6,0.8-1.1,1.1-1.5l0.3,0.5c0.2-0.4,0.3-0.9,0.4-1.4c4.4-4.7,7.4-0.5,6.3,11.6c-0.7,7.9-3.1,15.1-6,20.4
						c-0.2,0-0.4,0-0.6,0.1l0,1c-2.4,4-5,6.6-7.3,7.1c-3.2,0.7-4.8-3.3-4.2-8.1l-0.7,0.2c-0.6,6.4,1.8,10.2,4.7,9.6
						c2.2-0.5,4.5-2.6,6.6-5.7c-0.5,1-0.9,2-1.4,3.1l0.5,0.9c1-2.5,2-4.5,3-6.1c0.7,0.4,1.3,1.4,1.4,3.3c0.4,10.6-4.3,18.1-9.9,19.3
						C182.6,245.9,176.8,242.5,176.6,230.3 M183.3,203c1.3-1.6,2.5-2.5,3.7-2.7c0.6-0.1,2.6-0.1,2.7,1.9c0.1,2.4-1.1,3.9-2.1,4.1
						C186,206.7,184.4,205,183.3,203"/>
				</g>
				<g>
					<defs>
						<rect id="SVGID_33_" x="30" y="93.4" width="205.4" height="426"/>
					</defs>
					<clipPath id="SVGID_34_">
						<use xlink:href="#SVGID_33_"  style="overflow:visible;"/>
					</clipPath>
					<path class="st16" d="M199.2,282.6l0.6,1c2.9-6.9,6-11,9-11.5c3.4-0.7,6.9,2.5,6.2,11.2c-0.5,6.3-2.9,10.8-8.1,17.9l-7.1,9.4
						l0.2,0.7l0.2,0.7l4.2-5.6c7-9.4,12.6-5.2,11.3,10.8c-1.4,17.2-10.9,31.8-17.9,33.1c-4.3,0.8-6.7-3.9-6-9.4l-1,0.2
						c-0.6,7.4,2.7,11.9,6.7,11.2c8.4-1.6,17.7-18.2,19.1-35.3c1-12.5-2.1-19.9-8.3-16.1c5.3-6.7,7.2-12.2,7.6-18
						c0.7-8.8-3.2-13.5-7-12.7C205.3,271,201.8,276.2,199.2,282.6"/>
				</g>
				<g>
					<defs>
						<rect id="SVGID_35_" x="30" y="93.4" width="205.4" height="426"/>
					</defs>
					<clipPath id="SVGID_36_">
						<use xlink:href="#SVGID_35_"  style="overflow:visible;"/>
					</clipPath>
					<path class="st17" d="M103.5,302.6c-0.2-4.6-1-6.9-2-6.5c-0.9,0.4-1.6,3.4-1.5,6.8l0.4-0.1c-0.1-2.8,0.5-5,1.2-5.3
						c0.8-0.3,1.4,1.6,1.6,5.3c0.3,7-1.4,9.6-3,10.2c-2.2,0.9-3.6-0.8-4.7-0.3c-2,0.8-3.2,5-3.1,11.2c0.1,4.9,1.1,6.6,2,6.2
						c1-0.4,1.7-3.4,1.6-6.8l-0.4,0.1c0.1,2.8-0.5,5.1-1.2,5.4c-0.8,0.3-1.5-1.1-1.6-5c-0.2-6.3,1.1-9.2,2.9-9.9
						c2.1-0.8,3,6.9,3.2,13.3c0.5,12.3-3.5,17.8-7.8,19.3c-3.4,1.2-7.4-1.7-7.5-14.9c-0.1-5.3,0.3-12.7,1.7-15.4
						c0.8,3.1,1.9,5.1,3,4.7c0.7-0.3,1.4-2.1,1.3-4.8c-0.1-3.8-2-3.6-2.6-3.3c-0.5,0.2-1.3,1-1.6,1.6c-0.3-1.6-0.5-3.4-0.5-5.4
						c-0.1-8.1,1.7-14.7,3.8-15.5c0.8-0.3,2.2-0.2,2.3,3.4c0,1.7-0.3,4-0.9,6.6l0.3,0.8c0.7-2.9,1-5.4,1-7.4
						c-0.1-2.7-0.6-3.9-1.2-4.4c1.9-2.1,3.6-7.4,3.5-15.4c-0.1-3.2-0.8-4.2-1.5-3.9l0,1.3c0.5-0.1,1.1,0.4,1.1,2.7
						c0.2,8.1-1.8,13.9-4.3,14.8c-2.1,0.8-4.6-1.7-4.7-11.1c0-7.5,0.9-16.1,2.6-20.2c0.7,2.2,1.4,3.5,2.2,3.2
						c0.7-0.3,1.2-2.2,1.2-4.7c0-2.8-1.1-2.8-1.5-2.6c-0.6,0.2-1.2,1-1.8,2.4c-0.5-2.1-0.8-4.7-0.8-7.5v-0.3
						c0-8.2,1.6-15.3,3.4-16.1c1.2-0.5,2.8,2.2,2.8,7.6c0,1.9-0.1,3.9-0.6,6l0.2,0.8c0.5-2.3,0.7-4.7,0.6-7
						c-0.1-4.6-0.9-7.2-1.9-8.3c0.3,0.1,0.7,0,0.9-0.1c1.8-0.8,3.9-6.1,3.7-14.8c0-1.5-0.2-2.5-0.5-3.1c0.4-1.2,0.9-1.9,1.3-2.1
						c1-0.4,2,1.6,1.8,6.9c-0.2,3.9-0.9,6.7-2.4,11.1l-2.1,5.9l0.1,0.4l0,0.5l1.2-3.4c2.1-5.9,3.7-3.2,3.2,6.7
						c-0.5,10.6-3.3,19.7-5.3,20.6c-1.2,0.5-1.9-2.4-1.7-5.8l-0.3,0.1c-0.2,4.6,0.7,7.4,1.9,6.9c2.4-1,5.2-11.3,5.7-21.9
						c0.3-7.8-0.5-12.4-2.3-10c1.6-4.2,2.1-7.6,2.3-11.2c0.2-5.4-0.9-8.4-2-7.9c-0.5,0.2-1,1.1-1.5,2.4c0.9-3.9,1.7-8.9,1.9-14.1
						c0.3-7.5-0.4-11.9-2-9.7c1.4-4,1.9-7.3,2.1-10.8c0.1-2.6-0.1-4.6-0.4-5.9c0.4-2.2,0.6-5,0.5-8.2c0-1.9-0.3-3-0.6-3.4
						c0.1-1.2,0.2-2.3,0.2-3.5c0.3-7.5-0.3-11.9-1.8-9.6c1.3-4,1.8-7.3,1.9-10.8c0.1-3.1-0.1-5.3-0.5-6.6c-0.3-4.1-1.4-5.8-2.1-5.4
						c-1.4,0.8-2.7,8.4-2.7,16c0,2.8,0.2,5.5,0.6,7.6c-1.3,4.1-2,11.9-2,19.2c0,2.3,0.1,4.2,0.3,5.8c0,2.6,0.4,4.4,1,4.8
						c-1.3,2.4-2.2,8.7-2.2,15c0,2.8,0.2,5.5,0.7,7.6c-1.4,4.2-2.2,11.9-2.2,19.2c0,6.4,1,9.6,2.2,10.8c-0.1,0-0.2,0-0.4,0
						c-2,0.9-3.7,9.2-3.7,17.6c0,3.1,0.3,6,0.8,8.4c-1.8,4.6-2.7,13.1-2.7,21.1c0,8.3,1.8,11.7,3.5,12.4c-1.7,2.5-3,8.8-3,16
						c0,2.1,0.2,4,0.5,5.8c-1.5,2.9-2,10.8-1.9,16.6c0.2,14.6,4.6,17.2,8,16c4.5-1.6,8.7-7.7,8.2-20.8c-0.2-4.5-0.6-10.1-1.8-12.7
						c1.1,0.2,2,0.2,2.8-0.1C102.2,313.4,103.8,309.9,103.5,302.6 M86.9,314.1c0.8-0.3,2.2-0.2,2.2,2.2c0,2-0.5,3.1-1,3.3
						c-1,0.4-2-1.6-2.6-4.1C86,314.8,86.4,314.3,86.9,314.1 M88.8,257.9c0.2-0.1,1.1-0.1,1.1,1.5c0,1.8-0.5,3-0.9,3.1
						c-0.7,0.3-1.3-1-1.8-2.5C87.7,258.7,88.3,258.1,88.8,257.9 M96.6,181.3c-0.2,3.5-0.8,6.2-2,10c0.1-1.1,0.1-2.1,0.1-3.1
						c0-3-0.4-5.2-0.9-6.5c0.9-0.6,1.9-2.5,2.5-5.7C96.6,177.1,96.8,178.8,96.6,181.3 M93,180.3c0.1-0.2,0.1-0.5,0.2-0.7
						c0.5-1.1,1-2.6,1.5-4.5c0.2-0.2,0.3-0.4,0.5-0.5c0.4-0.2,0.7,0.1,1,0.8c-0.6,2.8-1.5,4.7-2.4,5.2c-0.1,0.1-0.3,0.1-0.4,0.1
						C93.2,180.6,93.1,180.4,93,180.3 M96.8,167.1c0.1,2.8-0.1,5.4-0.5,7.4c-0.3-0.9-0.7-1.2-1.1-1c-0.1,0-0.1,0.1-0.2,0.2
						c0.6-2.6,1-5.7,1.3-8.9C96.6,165,96.8,165.7,96.8,167.1 M91.7,143.8v-0.3c0-7.5,1.2-13.9,2.4-14.6c0.6-0.3,1.3,0.9,1.7,3.4
						c-0.2-0.3-0.4-0.3-0.6-0.2c-0.8,0.5-1.7,3.6-2.4,7.4l0.1,0.6c0.7-4.1,1.5-6.6,2.2-6.9c0.3-0.2,0.6,0,0.8,0.6
						c0.1,0.6,0.1,1.3,0.1,2c0,1.8-0.1,3.6-0.4,5.5l0.2,0.8c0.3-2.1,0.5-4.3,0.5-6.3c0-0.3,0-0.5,0-0.8c0.2,1.1,0.3,2.7,0.2,4.9
						c-0.2,3.6-0.7,6.3-1.9,10.4c-0.1-2-0.8-2.1-1.1-1.9c-0.4,0.2-0.8,0.9-1.3,2.2C91.9,148.7,91.7,146.4,91.7,143.8 M94.4,151.1
						l-0.8,2.7c-0.4-0.1-0.8-1.1-1.1-2.3c0.4-1.1,0.8-1.7,1.1-1.9c0.2-0.1,0.8-0.1,0.8,1.3C94.4,151,94.4,151,94.4,151.1
						 M94.2,152.9C94.2,153,94.2,153,94.2,152.9C94.2,153,94.2,152.9,94.2,152.9 M92.2,152.2c0.3,1.3,0.7,2.3,1,2.7l-0.4,1.4l0,0.4
						l0,0.4l0.7-2.1c0.1,0,0.2,0,0.2,0c0.4-0.2,0.7-1.4,0.8-3.1c1.3-2.8,2.2,0.2,1.8,8.4c-0.1,1.1-0.1,2.1-0.2,3.2
						c-0.1-0.1-0.2-0.1-0.3,0l0,1.2c0.1,0,0.1,0,0.2,0c-0.4,3.7-0.9,7-1.6,9.6c-0.5,0.9-1,2.4-1.4,4.4c-0.4,0.8-0.7,1.3-1.1,1.5
						c-0.6-0.7-1.1-2.2-1.4-4.5c0-0.3,0-0.7,0-1.1l-0.2,0.1c-0.1-1.2-0.2-2.5-0.2-4.1C90.3,163.6,91,155.9,92.2,152.2 M87.9,222.9
						c0-6.8,0.7-14.6,2.1-18.3c0.5,2,1.2,3.1,1.8,2.9c0.5-0.2,1-2,1-4.2c0-2.5-0.9-2.5-1.2-2.4c-0.5,0.2-0.9,0.9-1.5,2.2
						c-0.4-1.9-0.6-4.2-0.6-6.8V196c0-7.4,1.3-13.7,2.7-14.5c0.3,0.3,0.7,0.5,1.1,0.5c0.7,1,1.2,3.1,1.3,6.4c0,1.4-0.1,2.9-0.3,4.4
						l-1.7,5l0,0.4l0,0.4l1.1-3.3c0.1-0.4,0.3-0.8,0.4-1.1l0.1,0.4c0.1-0.3,0.1-0.6,0.2-1c1.5-3.3,2.6-0.3,2.2,8.1
						c-0.3,5.5-1.1,10.5-2.1,14.2c-0.1,0-0.1,0-0.2,0l0,0.7c-0.8,2.8-1.8,4.6-2.5,4.9c-1.1,0.5-1.7-2.3-1.5-5.6L90,216
						c-0.2,4.4,0.6,7.1,1.6,6.7c0.8-0.3,1.6-1.8,2.3-3.9c-0.2,0.7-0.3,1.4-0.5,2.2l0.2,0.6c0.3-1.7,0.7-3.1,1.1-4.3
						c0.2,0.3,0.4,0.9,0.5,2.3c0.1,7.4-1.5,12.6-3.5,13.4C90,233.7,88,231.4,87.9,222.9 M90.3,203.9c0.4-1.1,0.9-1.7,1.3-1.9
						c0.2-0.1,0.9-0.1,0.9,1.3c0,1.7-0.4,2.7-0.7,2.9C91.2,206.5,90.7,205.3,90.3,203.9"/>
				</g>
				<g>
					<defs>
						<rect id="SVGID_37_" x="30" y="93.4" width="205.4" height="426"/>
					</defs>
					<clipPath id="SVGID_38_">
						<use xlink:href="#SVGID_37_"  style="overflow:visible;"/>
					</clipPath>
					<path class="st18" d="M103.5,302.6c-0.2-4.6-1-6.9-2-6.5c-0.9,0.4-1.6,3.4-1.5,6.8l0.4-0.1c-0.1-2.8,0.5-5,1.2-5.3
						c0.8-0.3,1.4,1.6,1.6,5.3c0.3,7-1.4,9.6-3,10.2c-2.2,0.9-3.6-0.8-4.7-0.3c-2,0.8-3.2,5-3.1,11.2c0.1,4.9,1.1,6.6,2,6.2
						c1-0.4,1.7-3.4,1.6-6.8l-0.4,0.1c0.1,2.8-0.5,5.1-1.2,5.4c-0.8,0.3-1.5-1.1-1.6-5c-0.2-6.3,1.1-9.2,2.9-9.9
						c2.1-0.8,3,6.9,3.2,13.3c0.5,12.3-3.5,17.8-7.8,19.3c-3.4,1.2-7.4-1.7-7.5-14.9c-0.1-5.3,0.3-12.7,1.7-15.4
						c0.8,3.1,1.9,5.1,3,4.7c0.7-0.3,1.4-2.1,1.3-4.8c-0.1-3.8-2-3.6-2.6-3.3c-0.5,0.2-1.3,1-1.6,1.6c-0.3-1.6-0.5-3.4-0.5-5.4
						c-0.1-8.1,1.7-14.7,3.8-15.5c0.8-0.3,2.2-0.2,2.3,3.4c0,1.7-0.3,4-0.9,6.6l0.3,0.8c0.7-2.9,1-5.4,1-7.4
						c-0.1-2.7-0.6-3.9-1.2-4.4c1.9-2.1,3.6-7.4,3.5-15.4c-0.1-3.2-0.8-4.2-1.5-3.9l0,1.3c0.5-0.1,1.1,0.4,1.1,2.7
						c0.2,8.1-1.8,13.9-4.3,14.8c-2.1,0.8-4.6-1.7-4.7-11.1c0-7.5,0.9-16.1,2.6-20.2c0.7,2.2,1.4,3.5,2.2,3.2
						c0.7-0.3,1.2-2.2,1.2-4.7c0-2.8-1.1-2.8-1.5-2.6c-0.6,0.2-1.2,1-1.8,2.4c-0.5-2.1-0.8-4.7-0.8-7.5v-0.3
						c0-8.2,1.6-15.3,3.4-16.1c1.2-0.5,2.8,2.2,2.8,7.6c0,1.9-0.1,3.9-0.6,6l0.2,0.8c0.5-2.3,0.7-4.7,0.6-7
						c-0.1-4.6-0.9-7.2-1.9-8.3c0.3,0.1,0.7,0,0.9-0.1c1.8-0.8,3.9-6.1,3.7-14.8c0-1.5-0.2-2.5-0.5-3.1c0.4-1.2,0.9-1.9,1.3-2.1
						c1-0.4,2,1.6,1.8,6.9c-0.2,3.9-0.9,6.7-2.4,11.1l-2.1,5.9l0.1,0.4l0,0.5l1.2-3.4c2.1-5.9,3.7-3.2,3.2,6.7
						c-0.5,10.6-3.3,19.7-5.3,20.6c-1.2,0.5-1.9-2.4-1.7-5.8l-0.3,0.1c-0.2,4.6,0.7,7.4,1.9,6.9c2.4-1,5.2-11.3,5.7-21.9
						c0.3-7.8-0.5-12.4-2.3-10c1.6-4.2,2.1-7.6,2.3-11.2c0.2-5.4-0.9-8.4-2-7.9c-0.5,0.2-1,1.1-1.5,2.4c0.9-3.9,1.7-8.9,1.9-14.1
						c0.3-7.5-0.4-11.9-2-9.7c1.4-4,1.9-7.3,2.1-10.8c0.1-2.6-0.1-4.6-0.4-5.9c0.4-2.2,0.6-5,0.5-8.2c0-1.9-0.3-3-0.6-3.4
						c0.1-1.2,0.2-2.3,0.2-3.5c0.3-7.5-0.3-11.9-1.8-9.6c1.3-4,1.8-7.3,1.9-10.8c0.1-3.1-0.1-5.3-0.5-6.6c-0.3-4.1-1.4-5.8-2.1-5.4
						c-1.4,0.8-2.7,8.4-2.7,16c0,2.8,0.2,5.5,0.6,7.6c-1.3,4.1-2,11.9-2,19.2c0,2.3,0.1,4.2,0.3,5.8c0,2.6,0.4,4.4,1,4.8
						c-1.3,2.4-2.2,8.7-2.2,15c0,2.8,0.2,5.5,0.7,7.6c-1.4,4.2-2.2,11.9-2.2,19.2c0,6.4,1,9.6,2.2,10.8c-0.1,0-0.2,0-0.4,0
						c-2,0.9-3.7,9.2-3.7,17.6c0,3.1,0.3,6,0.8,8.4c-1.8,4.6-2.7,13.1-2.7,21.1c0,8.3,1.8,11.7,3.5,12.4c-1.7,2.5-3,8.8-3,16
						c0,2.1,0.2,4,0.5,5.8c-1.5,2.9-2,10.8-1.9,16.6c0.2,14.6,4.6,17.2,8,16c4.5-1.6,8.7-7.7,8.2-20.8c-0.2-4.5-0.6-10.1-1.8-12.7
						c1.1,0.2,2,0.2,2.8-0.1C102.2,313.4,103.8,309.9,103.5,302.6z M86.9,314.1c0.8-0.3,2.2-0.2,2.2,2.2c0,2-0.5,3.1-1,3.3
						c-1,0.4-2-1.6-2.6-4.1C86,314.8,86.4,314.3,86.9,314.1z M88.8,257.9c0.2-0.1,1.1-0.1,1.1,1.5c0,1.8-0.5,3-0.9,3.1
						c-0.7,0.3-1.3-1-1.8-2.5C87.7,258.7,88.3,258.1,88.8,257.9z M96.6,181.3c-0.2,3.5-0.8,6.2-2,10c0.1-1.1,0.1-2.1,0.1-3.1
						c0-3-0.4-5.2-0.9-6.5c0.9-0.6,1.9-2.5,2.5-5.7C96.6,177.1,96.8,178.8,96.6,181.3z M93,180.3c0.1-0.2,0.1-0.5,0.2-0.7
						c0.5-1.1,1-2.6,1.5-4.5c0.2-0.2,0.3-0.4,0.5-0.5c0.4-0.2,0.7,0.1,1,0.8c-0.6,2.8-1.5,4.7-2.4,5.2c-0.1,0.1-0.3,0.1-0.4,0.1
						C93.2,180.6,93.1,180.4,93,180.3z M96.8,167.1c0.1,2.8-0.1,5.4-0.5,7.4c-0.3-0.9-0.7-1.2-1.1-1c-0.1,0-0.1,0.1-0.2,0.2
						c0.6-2.6,1-5.7,1.3-8.9C96.6,165,96.8,165.7,96.8,167.1z M91.7,143.8v-0.3c0-7.5,1.2-13.9,2.4-14.6c0.6-0.3,1.3,0.9,1.7,3.4
						c-0.2-0.3-0.4-0.3-0.6-0.2c-0.8,0.5-1.7,3.6-2.4,7.4l0.1,0.6c0.7-4.1,1.5-6.6,2.2-6.9c0.3-0.2,0.6,0,0.8,0.6
						c0.1,0.6,0.1,1.3,0.1,2c0,1.8-0.1,3.6-0.4,5.5l0.2,0.8c0.3-2.1,0.5-4.3,0.5-6.3c0-0.3,0-0.5,0-0.8c0.2,1.1,0.3,2.7,0.2,4.9
						c-0.2,3.6-0.7,6.3-1.9,10.4c-0.1-2-0.8-2.1-1.1-1.9c-0.4,0.2-0.8,0.9-1.3,2.2C91.9,148.7,91.7,146.4,91.7,143.8z M94.4,151.1
						l-0.8,2.7c-0.4-0.1-0.8-1.1-1.1-2.3c0.4-1.1,0.8-1.7,1.1-1.9c0.2-0.1,0.8-0.1,0.8,1.3C94.4,151,94.4,151,94.4,151.1z
						 M94.2,152.9C94.2,153,94.2,153,94.2,152.9C94.2,153,94.2,152.9,94.2,152.9z M92.2,152.2c0.3,1.3,0.7,2.3,1,2.7l-0.4,1.4l0,0.4
						l0,0.4l0.7-2.1c0.1,0,0.2,0,0.2,0c0.4-0.2,0.7-1.4,0.8-3.1c1.3-2.8,2.2,0.2,1.8,8.4c-0.1,1.1-0.1,2.1-0.2,3.2
						c-0.1-0.1-0.2-0.1-0.3,0l0,1.2c0.1,0,0.1,0,0.2,0c-0.4,3.7-0.9,7-1.6,9.6c-0.5,0.9-1,2.4-1.4,4.4c-0.4,0.8-0.7,1.3-1.1,1.5
						c-0.6-0.7-1.1-2.2-1.4-4.5c0-0.3,0-0.7,0-1.1l-0.2,0.1c-0.1-1.2-0.2-2.5-0.2-4.1C90.3,163.6,91,155.9,92.2,152.2z M87.9,222.9
						c0-6.8,0.7-14.6,2.1-18.3c0.5,2,1.2,3.1,1.8,2.9c0.5-0.2,1-2,1-4.2c0-2.5-0.9-2.5-1.2-2.4c-0.5,0.2-0.9,0.9-1.5,2.2
						c-0.4-1.9-0.6-4.2-0.6-6.8V196c0-7.4,1.3-13.7,2.7-14.5c0.3,0.3,0.7,0.5,1.1,0.5c0.7,1,1.2,3.1,1.3,6.4c0,1.4-0.1,2.9-0.3,4.4
						l-1.7,5l0,0.4l0,0.4l1.1-3.3c0.1-0.4,0.3-0.8,0.4-1.1l0.1,0.4c0.1-0.3,0.1-0.6,0.2-1c1.5-3.3,2.6-0.3,2.2,8.1
						c-0.3,5.5-1.1,10.5-2.1,14.2c-0.1,0-0.1,0-0.2,0l0,0.7c-0.8,2.8-1.8,4.6-2.5,4.9c-1.1,0.5-1.7-2.3-1.5-5.6L90,216
						c-0.2,4.4,0.6,7.1,1.6,6.7c0.8-0.3,1.6-1.8,2.3-3.9c-0.2,0.7-0.3,1.4-0.5,2.2l0.2,0.6c0.3-1.7,0.7-3.1,1.1-4.3
						c0.2,0.3,0.4,0.9,0.5,2.3c0.1,7.4-1.5,12.6-3.5,13.4C90,233.7,88,231.4,87.9,222.9z M90.3,203.9c0.4-1.1,0.9-1.7,1.3-1.9
						c0.2-0.1,0.9-0.1,0.9,1.3c0,1.7-0.4,2.7-0.7,2.9C91.2,206.5,90.7,205.3,90.3,203.9z"/>
				</g>
				<g>
					<defs>
						<rect id="SVGID_39_" x="30" y="93.4" width="205.4" height="426"/>
					</defs>
					<clipPath id="SVGID_40_">
						<use xlink:href="#SVGID_39_"  style="overflow:visible;"/>
					</clipPath>
					<path class="st19" d="M95.8,259.3L96,260c1-4.8,2.1-7.6,3.2-8c1.2-0.5,2.4,1.8,2.2,7.8c-0.2,4.4-1,7.5-2.9,12.5l-2.5,6.6
						l0.1,0.5l0.1,0.5l1.5-3.9c2.5-6.6,4.4-3.6,4,7.5c-0.5,12-3.8,22.1-6.3,23.1c-1.5,0.6-2.3-2.7-2.1-6.5l-0.3,0.1
						c-0.2,5.1,0.9,8.3,2.3,7.8c3-1.1,6.2-12.7,6.7-24.6c0.3-8.7-0.8-13.9-2.9-11.2c1.8-4.7,2.5-8.5,2.7-12.5
						c0.2-6.1-1.1-9.4-2.4-8.8C97.9,251.2,96.7,254.9,95.8,259.3"/>
				</g>
				<g>
					<defs>
						<rect id="SVGID_41_" x="30" y="93.4" width="205.4" height="426"/>
					</defs>
					<clipPath id="SVGID_42_">
						<use xlink:href="#SVGID_41_"  style="overflow:visible;"/>
					</clipPath>
					<path class="st20" d="M95.8,259.3L96,260c1-4.8,2.1-7.6,3.2-8c1.2-0.5,2.4,1.8,2.2,7.8c-0.2,4.4-1,7.5-2.9,12.5l-2.5,6.6
						l0.1,0.5l0.1,0.5l1.5-3.9c2.5-6.6,4.4-3.6,4,7.5c-0.5,12-3.8,22.1-6.3,23.1c-1.5,0.6-2.3-2.7-2.1-6.5l-0.3,0.1
						c-0.2,5.1,0.9,8.3,2.3,7.8c3-1.1,6.2-12.7,6.7-24.6c0.3-8.7-0.8-13.9-2.9-11.2c1.8-4.7,2.5-8.5,2.7-12.5
						c0.2-6.1-1.1-9.4-2.4-8.8C97.9,251.2,96.7,254.9,95.8,259.3z"/>
				</g>
				<g>
					<defs>
						<rect id="SVGID_43_" x="30" y="93.4" width="205.4" height="426"/>
					</defs>
					<clipPath id="SVGID_44_">
						<use xlink:href="#SVGID_43_"  style="overflow:visible;"/>
					</clipPath>
					<path class="st21" d="M34.8,304.8c1,15.6,7.3,30.7,13.1,32.2c2.7,0.7,5-3.4,4.6-10.2l-0.7-0.2c0.5,5-1.2,9.3-4.1,8.6
						c-4.8-1.2-11.3-14.6-12.3-30.2c-0.9-14.6,3-18.4,7.8-9.8l2.9,5.1l0.1-0.7l0.1-0.7l-4.9-8.6c-3.6-6.5-5.2-10.6-5.6-16.4
						c-0.5-7.9,2-10.9,4.3-10.2c2,0.5,4.2,4.2,6.2,10.5l0.4-0.9c-1.8-5.8-4.2-10.6-6.7-11.3c-2.6-0.8-5.3,3.6-4.8,11.6
						c0.3,5.3,1.6,10.3,5.2,16.4C36.3,286.7,34.1,293.4,34.8,304.8"/>
				</g>
				<g>
					<defs>
						<rect id="SVGID_45_" x="30" y="93.4" width="205.4" height="426"/>
					</defs>
					<clipPath id="SVGID_46_">
						<use xlink:href="#SVGID_45_"  style="overflow:visible;"/>
					</clipPath>
					<path class="st22" d="M69.9,301.7c0.1-10.5-1.7-21.7-5.2-27.7c1.1-3.1,1.6-6.9,1.7-10.9c0.1-11-3.2-21.9-7.2-23.1
						c-0.2-0.1-0.4-0.1-0.7-0.1c2.3-1.6,4.3-5.8,4.3-14.1c0.1-9.5-1.4-19.7-4.2-25.1c0.9-2.8,1.3-6.2,1.3-9.9
						c0.1-8.3-1.8-16.5-4.3-19.7c1.1-0.6,1.9-2.9,2-6.4c0.4-2,0.7-4.5,0.7-7.6c0-9.5-1.3-19.7-3.9-25.1c0.8-2.8,1.2-6.2,1.2-9.9
						c0-10-2.4-19.9-5.3-21c-1.5-0.5-3.6,1.7-4.3,7.2c-0.8,1.6-1.3,4.5-1,8.5c0.3,4.6,1.3,8.9,3.8,14.1c-2.9-3-4.3,2.8-3.6,12.6
						c0.1,1.5,0.3,3.1,0.5,4.6c-0.6,0.5-1.1,1.9-1.2,4.4c-0.1,4.2,0.3,7.8,1,10.7c-0.7,1.7-1,4.3-0.8,7.7c0.3,4.6,1.3,8.9,4.1,14.1
						c-3.2-3-4.7,2.8-4,12.6c0.5,6.7,1.9,13.3,3.8,18.4c-0.9-1.7-1.9-2.9-2.9-3.2c-2.2-0.7-4.3,3.2-3.9,10.3
						c0.3,4.7,1.5,9.2,4.5,14.6c-3.6-3.1-5.3,2.9-4.6,13.1c0.9,13.9,6.3,27.4,11.1,28.7c2.3,0.6,4.1-3,3.7-9.1l-0.5-0.1
						c0.4,4.5-0.9,8.3-3.3,7.6c-4-1.1-9.5-13-10.4-26.9c-0.8-13,2.3-16.4,6.3-8.8l2.4,4.5l0.1-0.6l0.1-0.6l-4.1-7.7
						c-3-5.8-4.4-9.5-4.8-14.6c-0.5-7,1.5-9.7,3.5-9.1c0.8,0.2,1.7,1.2,2.6,2.7c-0.5,0.7-0.9,2-0.9,4c-0.4,11.4,3.7,18.3,7.3,19.4
						c0.6,0.2,1.2,0.2,1.8,0.1c-1.8,1.4-3.5,5-3.7,10.9c-0.1,3,0.3,6.2,1.2,9.2l0.5-1.1c-0.8-2.8-1.2-5.3-1.1-7.9
						c0.2-7.1,3.2-10.7,5.6-10c3.5,1,6.7,10.2,6.6,21.1v0.4c0,3.7-0.6,7.1-1.6,9.8c-1.2-1.9-2.4-2.9-3.5-3.2c-0.8-0.2-2.9-0.2-3,3.4
						c-0.1,3.2,1.1,5.8,2.3,6.1c1.4,0.4,3-1.3,4.3-4.1c3.3,5.3,5.1,16.5,4.9,26.4c-0.2,12.3-5,15.7-9.2,14.6
						c-4.7-1.2-8.7-8.8-8.3-19.4c0.1-3.1,1.2-3.7,2.2-3.5l0-1.7c-1.3-0.4-2.8,0.9-2.9,5.1c-0.4,10.4,3,17.5,6.7,20.2
						c-1.2,0.7-2.3,2.3-2.4,5.8c-0.1,2.7,0.5,5.9,1.9,9.8l0.5-1.1c-1.2-3.4-1.8-6.4-1.7-8.6c0.2-4.7,3-4.8,4.5-4.4
						c4.1,1.1,7.5,9.7,7.3,20.4c-0.1,2.5-0.4,4.9-1,7c-0.7-0.9-2.1-1.9-3.1-2.1c-1.2-0.3-4.9-0.6-5.1,4.4c-0.1,3.4,1.2,5.9,2.6,6.2
						c2.2,0.5,4.3-2.1,5.9-6.2c2.7,3.4,3.4,13.2,3.3,20.1c-0.4,17.2-8.1,21.1-14.7,19.5c-8.4-2-16.1-9.2-15.2-25.3
						c0.5-8.5,2.3-18.5,6.3-17.4c3.5,0.9,5.9,4.7,5.6,13c-0.2,5.1-1.6,6.9-3.1,6.5c-1.4-0.4-2.5-3.4-2.4-7l-0.8-0.2
						c-0.2,4.5,1.2,8.5,3.1,8.9c1.8,0.4,3.6-1.7,3.9-8.1c0.3-8.2-2.1-13.7-5.9-14.7c-2.1-0.5-4.8,1.6-9.1,0.4
						c-3.1-0.8-6.4-4.1-5.8-13.3c0.3-4.8,1.5-7.3,3-7c1.3,0.4,2.4,3.2,2.2,7l0.7,0.2c0.2-4.5-1.1-8.4-2.9-8.9
						c-2-0.5-3.5,2.5-3.9,8.5c-0.6,9.5,2.4,14.2,6.3,15.2c1.4,0.4,3.2,0.4,5.4,0.1c-2.2,3.4-3.1,10.7-3.4,16.6
						c-1,17.2,7,25.1,15.8,27.2c6.5,1.6,15.1-1.9,15.5-21c0.1-7.6-0.7-17.9-3.6-21.8c0.7-2.3,1-4.9,1.1-7.6
						c0.2-9.4-2.3-17.6-5.7-20.9C66.4,317.1,69.8,312.7,69.9,301.7 M51.2,170.3c-1.9-0.6-3.7-3.1-4.8-6.8c0.6-0.9,1.3-1.3,2-1
						c0.3,0.1,0.6,0.3,1,0.7c0.9,2.4,1.9,4.5,3,5.9c0.1,0.3,0.2,0.6,0.3,1c-0.2,0.1-0.4,0.3-0.6,0.4
						C51.7,170.4,51.4,170.4,51.2,170.3 M45.5,117.1c-0.2-2.9,0-4.9,0.4-6.4c0,0.3,0,0.6,0,0.9c-0.1,2.7,0.2,5.6,0.9,8.3l0.3-1
						c-0.6-2.5-0.8-4.9-0.8-7.2c0-1,0.1-1.8,0.2-2.6c0.5-0.8,1.1-1,1.7-0.8c1.4,0.5,2.9,3.6,4.3,9l0.3-0.8c-1.3-5-3-9.1-4.7-9.7
						c-0.4-0.2-0.8-0.1-1.2,0.3c0.8-3.3,2.3-4.9,3.5-4.4c2.5,0.9,4.9,9.3,4.8,19.1v0.3c0,3.4-0.4,6.4-1.2,8.9
						c-0.9-1.7-1.8-2.6-2.6-2.9c-0.6-0.2-1.9-0.2-2.2,2.5C47,125.3,45.8,121.9,45.5,117.1 M49.8,131.7c0-0.1,0-0.1,0-0.2
						c0-1.9,1.3-1.9,1.6-1.8c0.7,0.2,1.5,1,2.3,2.5c-0.6,1.5-1.4,2.9-2.2,3L49.8,131.7z M50.5,134.7c-0.1-0.2-0.2-0.3-0.3-0.6
						C50.3,134.3,50.4,134.5,50.5,134.7 M45.7,143.7c-0.7-10.7,1-14.7,3.7-10.9c0.2,2.2,0.9,3.8,1.7,4.1c0.2,0.1,0.3,0.1,0.5,0
						l1.3,2.8l0.1-0.6l0.1-0.6l-0.9-1.9c0.7-0.5,1.5-1.8,2.1-3.5c2.4,4.9,3.7,15,3.7,24c0,2.1-0.2,3.8-0.4,5.4l-0.3-0.1
						c0,0.5,0.1,0.9,0.1,1.4c-0.6,3.1-1.7,4.9-2.9,5.9c-0.7-0.3-1.4-0.9-2.1-1.9c-0.9-2.5-1.9-4.6-2.9-5.7
						c-1.3-3.4-2.4-7.8-3.1-12.5c0.1,0,0.2,0,0.3,0l0-1.6c-0.2-0.1-0.4-0.1-0.6,0C46,146.5,45.8,145.2,45.7,143.7 M45.1,152.7
						c0-1.9,0.4-2.7,0.9-3.1c0.6,4.2,1.5,8.2,2.7,11.6c-0.1-0.1-0.3-0.2-0.4-0.2c-0.8-0.3-1.6,0.2-2.2,1.4
						C45.3,159.7,45,156.4,45.1,152.7 M45.3,171.2c-0.2-3.2,0.1-5.5,0.6-6.9c1.2,4.1,3.2,6.7,5,7.4c-1,1.7-1.8,4.5-1.9,8.5
						c0,1.3,0,2.7,0.2,4.1C46.8,179.3,45.6,175.9,45.3,171.2 M54.8,238.9c-3.8-1.1-7.1-8-6.8-17.6c0-1.8,0.4-2.7,0.9-3
						c0.7,1.5,1.4,3.3,2.1,5.6l0.3-0.8c-0.3-1-0.6-1.9-1-2.8c1.5,2.8,3,4.7,4.6,5.2c2,0.6,3.7-2.9,3.2-8.7l-0.5-0.1
						c0.4,4.3-0.7,8-2.9,7.4c-1.5-0.5-3.3-2.9-5-6.5l0-0.9c-0.1,0-0.3-0.1-0.4-0.1c-2-4.8-3.6-11.4-4.1-18.6
						c-0.8-11,1.3-14.9,4.3-10.6c0.1,0.4,0.2,0.8,0.3,1.3l0.2-0.5c0.2,0.4,0.5,0.9,0.8,1.4l2.2,4.4l0.1-0.6l0.1-0.6l-3.3-6.5
						c-0.4-2-0.6-3.9-0.6-5.8c0.1-4.3,1.2-7.1,2.6-8.4c0.7,0,1.5-0.1,2.2-0.6c2.8,1.1,5.3,9.4,5.2,19v0.3c0,3.4-0.5,6.4-1.3,8.9
						c-1-1.7-2-2.6-2.9-2.9c-0.7-0.2-2.4-0.2-2.5,3.1c-0.1,2.9,0.9,5.2,1.9,5.6c1.2,0.4,2.5-1.2,3.5-3.8c2.7,4.9,4.1,15,4,24
						C62.2,236.9,58.2,239.9,54.8,238.9 M57.8,200.9c-0.8,1.8-1.9,3.3-2.9,3c-0.7-0.2-1.5-1.6-1.4-3.7c0-1.9,1.4-1.9,1.8-1.8
						C56,198.7,56.9,199.4,57.8,200.9 M60,277.6c-0.8-0.2-1.8-1.7-1.8-4.1c0-2.1,1.8-2.1,2.2-1.9c1,0.3,2,1.1,3.1,2.8
						C62.7,276.3,61.4,278,60,277.6 M61.4,352.4c-1-0.2-2-1.8-1.9-4.4c0.1-3,2.8-3.2,4.4-2.8c1,0.3,1.9,0.9,2.7,1.8
						C65.2,350.2,63.4,352.9,61.4,352.4"/>
				</g>
				<g>
					<defs>
						<rect id="SVGID_47_" x="30" y="93.4" width="205.4" height="426"/>
					</defs>
					<clipPath id="SVGID_48_">
						<use xlink:href="#SVGID_47_"  style="overflow:visible;"/>
					</clipPath>
					<path class="st23" d="M112.7,293.4c0.1,13.7,3.7,26.9,7.4,28.2c1.8,0.6,3.4-3,3.3-8.9l-0.4-0.1c0.2,4.4-1.1,8.2-2.9,7.5
						c-3.1-1.1-6.8-12.8-7-26.4c-0.1-12.8,2.5-16.1,5.3-8.6l1.7,4.4l0.1-0.6l0.1-0.6l-2.9-7.5c-2.1-5.7-3-9.3-3.1-14.3
						c-0.1-6.9,1.6-9.5,3.1-8.9c1.3,0.5,2.6,3.7,3.7,9.2l0.3-0.8c-1-5.1-2.4-9.3-4-9.9c-1.7-0.6-3.5,3.1-3.5,10.1
						c0,4.6,0.7,9,2.9,14.4C114.2,277.5,112.6,283.4,112.7,293.4"/>
				</g>
				<g>
					<defs>
						<rect id="SVGID_49_" x="30" y="93.4" width="205.4" height="426"/>
					</defs>
					<clipPath id="SVGID_50_">
						<use xlink:href="#SVGID_49_"  style="overflow:visible;"/>
					</clipPath>
					<path class="st24" d="M112.7,293.4c0.1,13.7,3.7,26.9,7.4,28.2c1.8,0.6,3.4-3,3.3-8.9l-0.4-0.1c0.2,4.4-1.1,8.2-2.9,7.5
						c-3.1-1.1-6.8-12.8-7-26.4c-0.1-12.8,2.5-16.1,5.3-8.6l1.7,4.4l0.1-0.6l0.1-0.6l-2.9-7.5c-2.1-5.7-3-9.3-3.1-14.3
						c-0.1-6.9,1.6-9.5,3.1-8.9c1.3,0.5,2.6,3.7,3.7,9.2l0.3-0.8c-1-5.1-2.4-9.3-4-9.9c-1.7-0.6-3.5,3.1-3.5,10.1
						c0,4.6,0.7,9,2.9,14.4C114.2,277.5,112.6,283.4,112.7,293.4z"/>
				</g>
				<g>
					<defs>
						<rect id="SVGID_51_" x="30" y="93.4" width="205.4" height="426"/>
					</defs>
					<clipPath id="SVGID_52_">
						<use xlink:href="#SVGID_51_"  style="overflow:visible;"/>
					</clipPath>
					<path class="st25" d="M135.5,290.7c0.4-9.2-0.4-19-2.4-24.2c0.8-2.7,1.3-6,1.4-9.6c0.4-9.6-1.4-19.2-3.9-20.2
						c-0.1-0.1-0.3-0.1-0.4-0.1c1.6-1.4,3-5.1,3.3-12.4c0.4-8.3-0.3-17.2-1.9-22c0.6-2.4,1.1-5.4,1.2-8.7c0.3-7.2-0.6-14.4-2.1-17.2
						c0.7-0.6,1.3-2.6,1.5-5.6c0.3-1.8,0.6-3.9,0.7-6.6c0.4-8.3-0.2-17.2-1.7-22c0.6-2.4,1-5.4,1.1-8.7c0.4-8.7-0.9-17.4-2.8-18.4
						c-1-0.5-2.4,1.5-3,6.2c-0.6,1.4-1,4-1,7.5c0.1,4,0.5,7.8,2,12.4c-1.8-2.6-2.9,2.5-2.8,11.1c0,1.3,0.1,2.7,0.1,4
						c-0.4,0.5-0.8,1.7-0.9,3.9c-0.2,3.7-0.1,6.8,0.3,9.4c-0.5,1.5-0.8,3.8-0.8,6.8c0.1,4,0.6,7.8,2.2,12.4c-2-2.6-3.1,2.5-3,11.1
						c0.1,5.9,0.8,11.7,1.8,16.1c-0.6-1.5-1.2-2.5-1.8-2.8c-1.4-0.6-2.9,2.8-2.9,9c0.1,4.1,0.6,8.1,2.4,12.8
						c-2.2-2.7-3.5,2.6-3.4,11.5c0.2,12.2,3.2,24,6.3,25.1c1.4,0.6,2.8-2.7,2.7-7.9l-0.3-0.1c0.1,4-0.8,7.3-2.4,6.7
						c-2.6-1-5.7-11.4-5.9-23.6c-0.1-11.4,2-14.4,4.4-7.7l1.4,3.9l0.1-0.5l0.1-0.5l-2.4-6.7c-1.8-5.1-2.6-8.3-2.6-12.8
						c-0.1-6.1,1.3-8.5,2.6-7.9c0.5,0.2,1.1,1,1.6,2.4c-0.3,0.6-0.6,1.7-0.7,3.5c-0.6,10,1.8,16,4.1,16.9c0.4,0.1,0.8,0.2,1.2,0.1
						c-1.2,1.3-2.4,4.4-2.8,9.5c-0.2,2.6,0,5.4,0.5,8l0.3-1c-0.4-2.4-0.6-4.7-0.4-6.9c0.3-6.2,2.4-9.3,4-8.7c2.2,0.9,4,9,3.6,18.4
						l0,0.3c-0.1,3.2-0.6,6.2-1.4,8.6c-0.7-1.6-1.4-2.5-2.2-2.8c-0.5-0.2-1.9-0.2-2.1,3c-0.1,2.8,0.5,5.1,1.3,5.4
						c0.9,0.4,2-1.1,2.9-3.6c1.9,4.7,2.7,14.5,2.3,23.1c-0.5,10.8-3.8,13.7-6.4,12.8c-3-1.1-5.3-7.7-4.7-17c0.2-2.7,0.9-3.2,1.6-3.1
						l0.1-1.5c-0.9-0.3-1.8,0.8-2.1,4.5c-0.6,9.1,1.4,15.3,3.7,17.7c-0.8,0.6-1.6,2-1.8,5.1c-0.1,2.3,0.2,5.2,0.9,8.5l0.4-1
						c-0.7-3-0.9-5.6-0.8-7.6c0.2-4.1,2.1-4.2,3.1-3.9c2.6,0.9,4.6,8.5,4.1,17.8c-0.1,2.2-0.4,4.3-0.9,6.1c-0.4-0.8-1.3-1.7-1.9-1.9
						c-0.8-0.3-3.2-0.5-3.4,3.8c-0.2,3,0.6,5.1,1.4,5.5c1.4,0.5,2.9-1.9,4-5.4c1.6,3,1.8,11.5,1.5,17.6
						c-0.8,15.1-5.9,18.5-10.1,17.1c-5.4-1.8-10.1-8-9-22.1c0.6-7.4,2.1-16.2,4.7-15.2c2.2,0.8,3.7,4.1,3.2,11.4
						c-0.3,4.5-1.2,6-2.2,5.7c-0.9-0.3-1.5-3-1.3-6.2l-0.5-0.2c-0.3,3.9,0.5,7.4,1.7,7.8c1.1,0.4,2.4-1.5,2.8-7.1
						c0.5-7.2-0.9-12-3.3-12.9c-1.4-0.5-3.1,1.4-5.9,0.4c-2-0.7-4-3.6-3.3-11.7c0.3-4.2,1.2-6.4,2.2-6.1c0.9,0.3,1.4,2.8,1.2,6.1
						l0.5,0.2c0.3-3.9-0.4-7.4-1.6-7.8c-1.2-0.4-2.3,2.2-2.8,7.5c-0.7,8.4,1.1,12.4,3.6,13.3c0.9,0.3,2.1,0.3,3.5,0.1
						c-1.5,3-2.3,9.4-2.8,14.5c-1.2,15,3.8,22,9.4,23.8c4.2,1.4,9.8-1.6,10.7-18.4c0.3-6.7,0.1-15.7-1.6-19.1c0.5-2,0.8-4.3,0.9-6.6
						c0.4-8.2-0.9-15.4-3-18.3C132.7,304.2,135.1,300.3,135.5,290.7 M127.6,175.6c-1.2-0.6-2.3-2.7-2.9-5.9c0.4-0.8,0.9-1.1,1.3-0.9
						c0.2,0.1,0.4,0.3,0.6,0.6c0.5,2.1,1.1,3.9,1.7,5.2c0.1,0.3,0.1,0.6,0.2,0.8c-0.1,0.1-0.2,0.2-0.4,0.4
						C128,175.7,127.8,175.7,127.6,175.6 M125.7,129c0-2.6,0.2-4.4,0.5-5.7c0,0.3-0.1,0.6-0.1,0.9c-0.1,2.4,0,4.9,0.3,7.3l0.3-0.9
						c-0.3-2.2-0.4-4.3-0.3-6.3c0-0.8,0.1-1.6,0.2-2.3c0.3-0.7,0.8-0.9,1.1-0.7c0.9,0.4,1.8,3.2,2.5,7.9l0.2-0.7
						c-0.7-4.4-1.7-8-2.8-8.5c-0.3-0.1-0.6,0-0.8,0.3c0.6-2.9,1.6-4.3,2.4-3.9c1.6,0.8,2.9,8.1,2.5,16.7l0,0.3
						c-0.1,2.9-0.5,5.6-1,7.8c-0.5-1.5-1.1-2.3-1.6-2.5c-0.4-0.2-1.2-0.1-1.5,2.2C126.3,136.3,125.7,133.2,125.7,129 M128,141.8
						c0-0.1,0-0.1,0-0.2c0.1-1.6,0.9-1.6,1.1-1.5c0.4,0.2,0.9,0.9,1.4,2.2c-0.4,1.3-1,2.5-1.6,2.7L128,141.8z M128.2,144
						C128.2,144,128.2,144,128.2,144C128.2,144,128.2,144,128.2,144 M124.9,152.4c-0.1-9.4,1.2-12.8,2.8-9.6
						c0.1,1.9,0.5,3.3,0.9,3.6c0.1,0.1,0.2,0.1,0.3,0l0.8,2.4l0.1-0.5l0.1-0.5l-0.5-1.6c0.5-0.5,1-1.6,1.5-3.1
						c1.4,4.2,1.9,13.1,1.6,21c-0.1,1.8-0.2,3.4-0.4,4.7l-0.2-0.1c0,0.4,0,0.8,0,1.2c-0.5,2.7-1.2,4.3-2.1,5.2
						c-0.4-0.2-0.9-0.8-1.3-1.7c-0.5-2.2-1.1-4-1.7-5c-0.7-3-1.3-6.8-1.6-11c0.1,0,0.1,0,0.2,0l0.1-1.4c-0.1-0.1-0.2-0.1-0.4,0
						C125,154.8,125,153.6,124.9,152.4 M124.2,160.2c0.1-1.6,0.4-2.4,0.7-2.7c0.3,3.7,0.7,7.2,1.3,10.2c-0.1-0.1-0.2-0.2-0.2-0.2
						c-0.5-0.2-1,0.2-1.5,1.2C124.2,166.3,124,163.4,124.2,160.2 M123.8,176.5c0-2.8,0.2-4.8,0.6-6c0.7,3.6,1.8,5.9,3,6.5
						c-0.7,1.5-1.3,3.9-1.5,7.4c-0.1,1.2-0.1,2.4,0,3.6C124.5,183.5,123.8,180.5,123.8,176.5 M127.8,235.7c-2.5-1-4.3-7-3.8-15.4
						c0.1-1.6,0.4-2.3,0.7-2.6c0.4,1.3,0.8,2.9,1.2,4.9l0.2-0.7c-0.2-0.9-0.3-1.7-0.5-2.5c0.9,2.5,1.8,4.1,2.8,4.5
						c1.3,0.5,2.5-2.6,2.4-7.6l-0.3-0.1c0.1,3.8-0.7,7-2.1,6.4c-1-0.4-2.1-2.5-3-5.7l0-0.8c-0.1,0-0.2-0.1-0.3-0.1
						c-1.1-4.2-2-9.9-2.1-16.2c-0.1-9.7,1.3-13.1,3.2-9.3c0.1,0.4,0.1,0.7,0.2,1.1l0.2-0.4c0.2,0.4,0.3,0.8,0.5,1.2l1.3,3.8l0.1-0.5
						l0.1-0.5l-1.9-5.7c-0.2-1.7-0.3-3.4-0.2-5c0.2-3.7,1-6.2,2-7.3c0.5,0,0.9-0.1,1.4-0.5c1.8,1,3.2,8.2,2.8,16.7l0,0.3
						c-0.1,2.9-0.5,5.6-1.1,7.8c-0.6-1.5-1.2-2.3-1.8-2.6c-0.4-0.2-1.5-0.2-1.7,2.7c-0.1,2.5,0.4,4.6,1.1,4.9c0.8,0.3,1.6-1,2.4-3.3
						c1.6,4.2,2.2,13.1,1.8,21C132.6,233.9,129.9,236.6,127.8,235.7 M130.9,202.4c-0.6,1.6-1.3,2.9-2,2.6c-0.4-0.2-0.9-1.4-0.8-3.3
						c0.1-1.6,1-1.6,1.2-1.5C129.9,200.5,130.4,201.1,130.9,202.4 M129.9,269.6c-0.5-0.2-1.1-1.5-1-3.6c0.1-1.8,1.2-1.8,1.5-1.7
						c0.6,0.2,1.3,1,1.9,2.4C131.6,268.4,130.7,269.9,129.9,269.6 M128.3,335.1c-0.6-0.2-1.2-1.6-1.1-3.8c0.2-2.7,1.9-2.8,2.9-2.5
						c0.6,0.2,1.2,0.8,1.7,1.6C130.9,333.2,129.6,335.5,128.3,335.1"/>
				</g>
				<g>
					<defs>
						<rect id="SVGID_53_" x="30" y="93.4" width="205.4" height="426"/>
					</defs>
					<clipPath id="SVGID_54_">
						<use xlink:href="#SVGID_53_"  style="overflow:visible;"/>
					</clipPath>
					<path class="st26" d="M135.5,290.7c0.4-9.2-0.4-19-2.4-24.2c0.8-2.7,1.3-6,1.4-9.6c0.4-9.6-1.4-19.2-3.9-20.2
						c-0.1-0.1-0.3-0.1-0.4-0.1c1.6-1.4,3-5.1,3.3-12.4c0.4-8.3-0.3-17.2-1.9-22c0.6-2.4,1.1-5.4,1.2-8.7c0.3-7.2-0.6-14.4-2.1-17.2
						c0.7-0.6,1.3-2.6,1.5-5.6c0.3-1.8,0.6-3.9,0.7-6.6c0.4-8.3-0.2-17.2-1.7-22c0.6-2.4,1-5.4,1.1-8.7c0.4-8.7-0.9-17.4-2.8-18.4
						c-1-0.5-2.4,1.5-3,6.2c-0.6,1.4-1,4-1,7.5c0.1,4,0.5,7.8,2,12.4c-1.8-2.6-2.9,2.5-2.8,11.1c0,1.3,0.1,2.7,0.1,4
						c-0.4,0.5-0.8,1.7-0.9,3.9c-0.2,3.7-0.1,6.8,0.3,9.4c-0.5,1.5-0.8,3.8-0.8,6.8c0.1,4,0.6,7.8,2.2,12.4c-2-2.6-3.1,2.5-3,11.1
						c0.1,5.9,0.8,11.7,1.8,16.1c-0.6-1.5-1.2-2.5-1.8-2.8c-1.4-0.6-2.9,2.8-2.9,9c0.1,4.1,0.6,8.1,2.4,12.8
						c-2.2-2.7-3.5,2.6-3.4,11.5c0.2,12.2,3.2,24,6.3,25.1c1.4,0.6,2.8-2.7,2.7-7.9l-0.3-0.1c0.1,4-0.8,7.3-2.4,6.7
						c-2.6-1-5.7-11.4-5.9-23.6c-0.1-11.4,2-14.4,4.4-7.7l1.4,3.9l0.1-0.5l0.1-0.5l-2.4-6.7c-1.8-5.1-2.6-8.3-2.6-12.8
						c-0.1-6.1,1.3-8.5,2.6-7.9c0.5,0.2,1.1,1,1.6,2.4c-0.3,0.6-0.6,1.7-0.7,3.5c-0.6,10,1.8,16,4.1,16.9c0.4,0.1,0.8,0.2,1.2,0.1
						c-1.2,1.3-2.4,4.4-2.8,9.5c-0.2,2.6,0,5.4,0.5,8l0.3-1c-0.4-2.4-0.6-4.7-0.4-6.9c0.3-6.2,2.4-9.3,4-8.7c2.2,0.9,4,9,3.6,18.4
						l0,0.3c-0.1,3.2-0.6,6.2-1.4,8.6c-0.7-1.6-1.4-2.5-2.2-2.8c-0.5-0.2-1.9-0.2-2.1,3c-0.1,2.8,0.5,5.1,1.3,5.4
						c0.9,0.4,2-1.1,2.9-3.6c1.9,4.7,2.7,14.5,2.3,23.1c-0.5,10.8-3.8,13.7-6.4,12.8c-3-1.1-5.3-7.7-4.7-17c0.2-2.7,0.9-3.2,1.6-3.1
						l0.1-1.5c-0.9-0.3-1.8,0.8-2.1,4.5c-0.6,9.1,1.4,15.3,3.7,17.7c-0.8,0.6-1.6,2-1.8,5.1c-0.1,2.3,0.2,5.2,0.9,8.5l0.4-1
						c-0.7-3-0.9-5.6-0.8-7.6c0.2-4.1,2.1-4.2,3.1-3.9c2.6,0.9,4.6,8.5,4.1,17.8c-0.1,2.2-0.4,4.3-0.9,6.1c-0.4-0.8-1.3-1.7-1.9-1.9
						c-0.8-0.3-3.2-0.5-3.4,3.8c-0.2,3,0.6,5.1,1.4,5.5c1.4,0.5,2.9-1.9,4-5.4c1.6,3,1.8,11.5,1.5,17.6
						c-0.8,15.1-5.9,18.5-10.1,17.1c-5.4-1.8-10.1-8-9-22.1c0.6-7.4,2.1-16.2,4.7-15.2c2.2,0.8,3.7,4.1,3.2,11.4
						c-0.3,4.5-1.2,6-2.2,5.7c-0.9-0.3-1.5-3-1.3-6.2l-0.5-0.2c-0.3,3.9,0.5,7.4,1.7,7.8c1.1,0.4,2.4-1.5,2.8-7.1
						c0.5-7.2-0.9-12-3.3-12.9c-1.4-0.5-3.1,1.4-5.9,0.4c-2-0.7-4-3.6-3.3-11.7c0.3-4.2,1.2-6.4,2.2-6.1c0.9,0.3,1.4,2.8,1.2,6.1
						l0.5,0.2c0.3-3.9-0.4-7.4-1.6-7.8c-1.2-0.4-2.3,2.2-2.8,7.5c-0.7,8.4,1.1,12.4,3.6,13.3c0.9,0.3,2.1,0.3,3.5,0.1
						c-1.5,3-2.3,9.4-2.8,14.5c-1.2,15,3.8,22,9.4,23.8c4.2,1.4,9.8-1.6,10.7-18.4c0.3-6.7,0.1-15.7-1.6-19.1c0.5-2,0.8-4.3,0.9-6.6
						c0.4-8.2-0.9-15.4-3-18.3C132.7,304.2,135.1,300.3,135.5,290.7z M127.6,175.6c-1.2-0.6-2.3-2.7-2.9-5.9
						c0.4-0.8,0.9-1.1,1.3-0.9c0.2,0.1,0.4,0.3,0.6,0.6c0.5,2.1,1.1,3.9,1.7,5.2c0.1,0.3,0.1,0.6,0.2,0.8c-0.1,0.1-0.2,0.2-0.4,0.4
						C128,175.7,127.8,175.7,127.6,175.6z M125.7,129c0-2.6,0.2-4.4,0.5-5.7c0,0.3-0.1,0.6-0.1,0.9c-0.1,2.4,0,4.9,0.3,7.3l0.3-0.9
						c-0.3-2.2-0.4-4.3-0.3-6.3c0-0.8,0.1-1.6,0.2-2.3c0.3-0.7,0.8-0.9,1.1-0.7c0.9,0.4,1.8,3.2,2.5,7.9l0.2-0.7
						c-0.7-4.4-1.7-8-2.8-8.5c-0.3-0.1-0.6,0-0.8,0.3c0.6-2.9,1.6-4.3,2.4-3.9c1.6,0.8,2.9,8.1,2.5,16.7l0,0.3
						c-0.1,2.9-0.5,5.6-1,7.8c-0.5-1.5-1.1-2.3-1.6-2.5c-0.4-0.2-1.2-0.1-1.5,2.2C126.3,136.3,125.7,133.2,125.7,129z M128,141.8
						c0-0.1,0-0.1,0-0.2c0.1-1.6,0.9-1.6,1.1-1.5c0.4,0.2,0.9,0.9,1.4,2.2c-0.4,1.3-1,2.5-1.6,2.7L128,141.8z M128.2,144
						C128.2,144,128.2,144,128.2,144C128.2,144,128.2,144,128.2,144z M124.9,152.4c-0.1-9.4,1.2-12.8,2.8-9.6
						c0.1,1.9,0.5,3.3,0.9,3.6c0.1,0.1,0.2,0.1,0.3,0l0.8,2.4l0.1-0.5l0.1-0.5l-0.5-1.6c0.5-0.5,1-1.6,1.5-3.1
						c1.4,4.2,1.9,13.1,1.6,21c-0.1,1.8-0.2,3.4-0.4,4.7l-0.2-0.1c0,0.4,0,0.8,0,1.2c-0.5,2.7-1.2,4.3-2.1,5.2
						c-0.4-0.2-0.9-0.8-1.3-1.7c-0.5-2.2-1.1-4-1.7-5c-0.7-3-1.3-6.8-1.6-11c0.1,0,0.1,0,0.2,0l0.1-1.4c-0.1-0.1-0.2-0.1-0.4,0
						C125,154.8,125,153.6,124.9,152.4z M124.2,160.2c0.1-1.6,0.4-2.4,0.7-2.7c0.3,3.7,0.7,7.2,1.3,10.2c-0.1-0.1-0.2-0.2-0.2-0.2
						c-0.5-0.2-1,0.2-1.5,1.2C124.2,166.3,124,163.4,124.2,160.2z M123.8,176.5c0-2.8,0.2-4.8,0.6-6c0.7,3.6,1.8,5.9,3,6.5
						c-0.7,1.5-1.3,3.9-1.5,7.4c-0.1,1.2-0.1,2.4,0,3.6C124.5,183.5,123.8,180.5,123.8,176.5z M127.8,235.7c-2.5-1-4.3-7-3.8-15.4
						c0.1-1.6,0.4-2.3,0.7-2.6c0.4,1.3,0.8,2.9,1.2,4.9l0.2-0.7c-0.2-0.9-0.3-1.7-0.5-2.5c0.9,2.5,1.8,4.1,2.8,4.5
						c1.3,0.5,2.5-2.6,2.4-7.6l-0.3-0.1c0.1,3.8-0.7,7-2.1,6.4c-1-0.4-2.1-2.5-3-5.7l0-0.8c-0.1,0-0.2-0.1-0.3-0.1
						c-1.1-4.2-2-9.9-2.1-16.2c-0.1-9.7,1.3-13.1,3.2-9.3c0.1,0.4,0.1,0.7,0.2,1.1l0.2-0.4c0.2,0.4,0.3,0.8,0.5,1.2l1.3,3.8l0.1-0.5
						l0.1-0.5l-1.9-5.7c-0.2-1.7-0.3-3.4-0.2-5c0.2-3.7,1-6.2,2-7.3c0.5,0,0.9-0.1,1.4-0.5c1.8,1,3.2,8.2,2.8,16.7l0,0.3
						c-0.1,2.9-0.5,5.6-1.1,7.8c-0.6-1.5-1.2-2.3-1.8-2.6c-0.4-0.2-1.5-0.2-1.7,2.7c-0.1,2.5,0.4,4.6,1.1,4.9c0.8,0.3,1.6-1,2.4-3.3
						c1.6,4.2,2.2,13.1,1.8,21C132.6,233.9,129.9,236.6,127.8,235.7z M130.9,202.4c-0.6,1.6-1.3,2.9-2,2.6c-0.4-0.2-0.9-1.4-0.8-3.3
						c0.1-1.6,1-1.6,1.2-1.5C129.9,200.5,130.4,201.1,130.9,202.4z M129.9,269.6c-0.5-0.2-1.1-1.5-1-3.6c0.1-1.8,1.2-1.8,1.5-1.7
						c0.6,0.2,1.3,1,1.9,2.4C131.6,268.4,130.7,269.9,129.9,269.6z M128.3,335.1c-0.6-0.2-1.2-1.6-1.1-3.8c0.2-2.7,1.9-2.8,2.9-2.5
						c0.6,0.2,1.2,0.8,1.7,1.6C130.9,333.2,129.6,335.5,128.3,335.1z"/>
				</g>
			</g>
		</g>
	</g>
</g>
</svg>
